<?xml version="1.0" encoding="UTF-8" standalone="no"?>
<svg
   width="1024"
   height="1024"
   viewBox="0 0 34 34"
   version="1.1"
   id="svg8"
   sodipodi:docname="Lock.svg"
   inkscape:version="1.4.2 (ebf0e940d0, 2025-05-08)"
   xmlns:inkscape="http://www.inkscape.org/namespaces/inkscape"
   xmlns:sodipodi="http://sodipodi.sourceforge.net/DTD/sodipodi-0.dtd"
   xmlns="http://www.w3.org/2000/svg"
   xmlns:svg="http://www.w3.org/2000/svg"
   xmlns:rdf="http://www.w3.org/1999/02/22-rdf-syntax-ns#"
   xmlns:cc="http://creativecommons.org/ns#"
   xmlns:dc="http://purl.org/dc/elements/1.1/">
  <sodipodi:namedview
     id="namedview1"
     pagecolor="#ffffff"
     bordercolor="#000000"
     borderopacity="0.25"
     inkscape:showpageshadow="2"
     inkscape:pageopacity="0.0"
     inkscape:pagecheckerboard="0"
     inkscape:deskcolor="#d1d1d1"
     inkscape:zoom="0.34570312"
     inkscape:cx="510.55368"
     inkscape:cy="510.55368"
     inkscape:window-width="1902"
     inkscape:window-height="1033"
     inkscape:window-x="0"
     inkscape:window-y="0"
     inkscape:window-maximized="1"
     inkscape:current-layer="svg8" />
  <defs
     id="defs2" />
  <metadata
     id="metadata5">
    <rdf:RDF>
      <cc:Work
         rdf:about="">
        <dc:format>image/svg+xml</dc:format>
        <dc:type
           rdf:resource="http://purl.org/dc/dcmitype/StillImage" />
        <dc:title />
      </cc:Work>
    </rdf:RDF>
  </metadata>
  <path
     style="opacity:1;vector-effect:none;fill:#444444;fill-opacity:1;stroke:none;stroke-width:3;stroke-linecap:round;stroke-linejoin:round;stroke-miterlimit:4;stroke-dasharray:none;stroke-dashoffset:0;stroke-opacity:1;paint-order:stroke markers fill"
     d="M 17,1 C 8.163444,1 1,8.163444 1,17 1,25.836556 8.163444,33 17,33 25.836556,33 33,25.836556 33,17 33,8.163444 25.836556,1 17,1 Z m 0,1 C 25.284271,2 32,8.7157288 32,17 32,25.284271 25.284271,32 17,32 8.7157288,32 2,25.284271 2,17 2,8.7157288 8.7157288,2 17,2 Z"
     id="path831" />
  <path
     fill="#444444"
     d="m 11.065575,25.924007 q -0.740702,0 -1.2609545,-0.520254 -0.5202542,-0.520254 -0.5202542,-1.259852 v -9.666584 q 0,-0.738495 0.5202542,-1.259852 0.5202525,-0.520254 1.2609545,-0.520254 h 1.52549 v -2.204467 q 0,-1.8418339 1.284102,-3.1248339 1.283002,-1.2841015 3.124832,-1.2841015 1.841833,0 3.125935,1.2841015 1.284101,1.2841022 1.282999,3.1248339 v 2.204467 h 1.526593 q 0.738497,0 1.259853,0.520254 0.520255,0.520254 0.520255,1.260955 v 9.665481 q 0,0.738496 -0.520255,1.259852 -0.520254,0.520254 -1.259853,0.520254 z m 0,-1.102233 h 11.869951 q 0.2965,0 0.487186,-0.190687 0.190688,-0.190686 0.190688,-0.487186 v -9.666584 q 0,-0.2965 -0.190688,-0.487186 -0.190686,-0.190686 -0.487186,-0.190686 H 11.064473 q -0.296501,0 -0.487188,0.190686 -0.190686,0.190686 -0.190686,0.488289 v 9.665481 q 0,0.2965 0.190686,0.487187 0.190687,0.190686 0.48829,0.190686 m 5.934424,-3.857816 q 0.697713,0 1.174981,-0.478368 0.478369,-0.477268 0.478369,-1.174981 0,-0.697713 -0.478369,-1.174981 -0.47837,-0.477267 -1.174981,-0.478369 -0.696611,-0.0011 -1.174981,0.478369 -0.478368,0.477268 -0.478368,1.174981 0,0.697713 0.478368,1.174981 0.477268,0.478368 1.174981,0.478368 M 13.6933,12.697211 h 6.613399 v -2.204467 q 0,-1.3777942 -0.964453,-2.3422485 -0.964456,-0.964454 -2.342247,-0.964454 -1.377791,0 -2.342245,0.964454 -0.964455,0.9644542 -0.964455,2.3422485 z M 10.386599,24.821774 V 13.799445 Z"
     id="path1"
     style="stroke-width:1.10223" />
</svg>
