<?xml version="1.0" encoding="UTF-8" standalone="no"?>
<svg
   fill="#000000"
   viewBox="0 0 34 34"
   height="1024"
   width="1024"
   id="Flat"
   version="1.1"
   sodipodi:docname="Logout.svg"
   inkscape:version="1.4.2 (ebf0e940d0, 2025-05-08)"
   xmlns:inkscape="http://www.inkscape.org/namespaces/inkscape"
   xmlns:sodipodi="http://sodipodi.sourceforge.net/DTD/sodipodi-0.dtd"
   xmlns="http://www.w3.org/2000/svg"
   xmlns:svg="http://www.w3.org/2000/svg">
  <defs
     id="defs1" />
  <sodipodi:namedview
     id="namedview1"
     pagecolor="#ffffff"
     bordercolor="#000000"
     borderopacity="0.25"
     inkscape:showpageshadow="2"
     inkscape:pageopacity="0.0"
     inkscape:pagecheckerboard="0"
     inkscape:deskcolor="#d1d1d1"
     inkscape:zoom="0.40625"
     inkscape:cx="323.69231"
     inkscape:cy="264.61538"
     inkscape:window-width="1902"
     inkscape:window-height="1033"
     inkscape:window-x="0"
     inkscape:window-y="0"
     inkscape:window-maximized="1"
     inkscape:current-layer="Flat" />
  <g
     id="SVGRepo_bgCarrier"
     stroke-width="0"
     style="fill:#ffffff" />
  <g
     id="SVGRepo_tracerCarrier"
     stroke-linecap="round"
     stroke-linejoin="round"
     style="fill:#ffffff" />
  <g
     id="SVGRepo_iconCarrier"
     transform="matrix(0.1667021,0,0,0.1667021,-4.3378785,-4.3378688)"
     style="fill:#ffffff">
    <path
       fill="#444444"
       d="m 218.82861,130.82812 -41.98877,42 a 4.00009,4.00009 0 1 1 -5.65771,-5.65624 L 206.34473,132 H 104 a 4,4 0 0 1 0,-8 h 102.34473 l -35.1626,-35.17188 a 4.00009,4.00009 0 1 1 5.65771,-5.65624 l 41.98877,42 a 3.99942,3.99942 0 0 1 0,5.65624 z M 104,212 H 48 a 4.00427,4.00427 0 0 1 -4,-4 V 48 a 4.00427,4.00427 0 0 1 4,-4 h 56 a 4,4 0 0 0 0,-8 H 48 A 12.01343,12.01343 0 0 0 36,48 v 160 a 12.01343,12.01343 0 0 0 12,12 h 56 a 4,4 0 0 0 0,-8 z"
       id="path1"
       style="fill:#ffffff" />
  </g>
</svg>
