<?xml version="1.0" encoding="UTF-8" standalone="no"?>
<svg
   width="1024"
   height="1024"
   viewBox="0 0 34 34"
   version="1.1"
   id="svg8"
   sodipodi:docname="Logout-dark.svg"
   inkscape:version="1.4.2 (ebf0e940d0, 2025-05-08)"
   xmlns:inkscape="http://www.inkscape.org/namespaces/inkscape"
   xmlns:sodipodi="http://sodipodi.sourceforge.net/DTD/sodipodi-0.dtd"
   xmlns="http://www.w3.org/2000/svg"
   xmlns:svg="http://www.w3.org/2000/svg"
   xmlns:rdf="http://www.w3.org/1999/02/22-rdf-syntax-ns#"
   xmlns:cc="http://creativecommons.org/ns#"
   xmlns:dc="http://purl.org/dc/elements/1.1/">
  <sodipodi:namedview
     id="namedview1"
     pagecolor="#ffffff"
     bordercolor="#000000"
     borderopacity="0.25"
     inkscape:showpageshadow="2"
     inkscape:pageopacity="0.0"
     inkscape:pagecheckerboard="0"
     inkscape:deskcolor="#d1d1d1"
     inkscape:zoom="0.34570312"
     inkscape:cx="509.10735"
     inkscape:cy="513.44634"
     inkscape:window-width="1902"
     inkscape:window-height="1033"
     inkscape:window-x="0"
     inkscape:window-y="0"
     inkscape:window-maximized="1"
     inkscape:current-layer="svg8" />
  <defs
     id="defs2" />
  <metadata
     id="metadata5">
    <rdf:RDF>
      <cc:Work
         rdf:about="">
        <dc:format>image/svg+xml</dc:format>
        <dc:type
           rdf:resource="http://purl.org/dc/dcmitype/StillImage" />
        <dc:title />
      </cc:Work>
    </rdf:RDF>
  </metadata>
  <path
     style="opacity:1;vector-effect:none;fill:#444444;fill-opacity:1;stroke:none;stroke-width:3;stroke-linecap:round;stroke-linejoin:round;stroke-miterlimit:4;stroke-dasharray:none;stroke-dashoffset:0;stroke-opacity:1;paint-order:stroke markers fill"
     d="M 17,1 C 8.163444,1 1,8.163444 1,17 1,25.836556 8.163444,33 17,33 25.836556,33 33,25.836556 33,17 33,8.163444 25.836556,1 17,1 Z m 0,1 C 25.284271,2 32,8.7157288 32,17 32,25.284271 25.284271,32 17,32 8.7157288,32 2,25.284271 2,17 2,8.7157288 8.7157288,2 17,2 Z"
     id="path831" />
  <path
     fill="#444444"
     d="M 9.6640626,24.734376 V 8.7343751 H 17.68406 v 1 h -7.02 V 23.734376 h 7.02 v 1 z m 12.4619974,-4.461 -0.702,-0.72 2.319,-2.319 h -8.887 v -1 h 8.887 l -2.32,-2.32 0.702,-0.718 3.539,3.538 z"
     id="path1" />
</svg>
